<svg xmlns="http://www.w3.org/2000/svg" viewBox="0 0 512 512">
  <defs>
    <linearGradient id="grad" x1="0%" y1="0%" x2="100%" y2="100%">
      <stop offset="0%" style="stop-color:#0f766e;stop-opacity:1" />
      <stop offset="100%" style="stop-color:#115e59;stop-opacity:1" />
    </linearGradient>
  </defs>
  <circle cx="256" cy="256" r="240" fill="url(#grad)" />
  <path d="M256 128c-70.7 0-128 57.3-128 128 0 70.7 57.3 128 128 128s128-57.3 128-128c0-70.7-57.3-128-128-128zm0 192c-35.3 0-64-28.7-64-64s28.7-64 64-64 64 28.7 64 64-28.7 64-64 64z" fill="white" opacity="0.2"/>
  <path d="M368 256c0-61.9-50.1-112-112-112S144 194.1 144 256c0 36.8 28.4 92 68.9 146.4 23.3 31.3 43.1 43.6 43.1 43.6s19.8-12.3 43.1-43.6C339.6 348 368 292.8 368 256z" fill="white"/>
  <circle cx="256" cy="256" r="40" fill="#0f766e"/>
  <path d="M256 236a20 20 0 1 1 0 40 20 20 0 0 1 0-40" fill="#0f766e"/>
</svg>
