<svg width="1920" height="1080" viewBox="0 0 1920 1080" xmlns="http://www.w3.org/2000/svg">
    <defs>
      <marker id="arrow" markerWidth="12" markerHeight="12" refX="10" refY="6" orient="auto">
        <path d="M2,2 L10,6 L2,10 L2,2" fill="black" />
      </marker>
      <pattern id="grid" width="100" height="100" patternUnits="userSpaceOnUse">
        <path d="M 100 0 L 0 0 0 100" fill="none" stroke="#F5F5F5" stroke-width="2"/>
      </pattern>
    </defs>
    <rect width="100%" height="100%" fill="white"/>
    <rect width="100%" height="100%" fill="url(#grid)"/>
   
        <line x1="510" y1="540" x2="800" y2="540" stroke="black" stroke-width="4" marker-end="url(#arrow)"/>
        <line x1="1120" y1="540" x2="1410" y2="540" stroke="black" stroke-width="4" marker-end="url(#arrow)"/>
     
        <rect x="190" y="430" width="320" height="220" fill="white" stroke="black" stroke-width="4"/>
        <text x="350" y="690" text-anchor="middle" font-family="Arial, sans-serif" font-size="24" font-weight="bold" letter-spacing="1">CLIENT</text>
        <!-- Icon: Screen -->
        <rect x="290" y="490" width="120" height="80" rx="4" fill="none" stroke="black" stroke-width="3"/>
        <line x1="330" y1="580" x2="370" y2="580" stroke="black" stroke-width="3"/>
     
        <rect x="800" y="430" width="320" height="220" fill="white" stroke="black" stroke-width="4"/>
        <text x="960" y="690" text-anchor="middle" font-family="Arial, sans-serif" font-size="24" font-weight="bold" letter-spacing="1">SERVER</text>
        <!-- Icon: Rack -->
        <rect x="910" y="480" width="100" height="120" fill="none" stroke="black" stroke-width="3"/>
        <line x1="910" y1="520" x2="1010" y2="520" stroke="black" stroke-width="1"/>
        <line x1="910" y1="560" x2="1010" y2="560" stroke="black" stroke-width="1"/>
     
        <rect x="1410" y="430" width="320" height="220" fill="white" stroke="black" stroke-width="4"/>
        <text x="1570" y="690" text-anchor="middle" font-family="Arial, sans-serif" font-size="24" font-weight="bold" letter-spacing="1">DATABASE</text>
        <!-- Icon: Cylinder -->
        <path d="M 1520 500 L 1520 580 A 50 15 0 0 0 1620 580 L 1620 500" fill="none" stroke="black" stroke-width="3"/>
        <ellipse cx="1570" cy="500" rx="50" ry="15" fill="none" stroke="black" stroke-width="3"/>
     
  </svg>